<?xml version="1.0" encoding="utf-8"?>
<!-- Generator: Adobe Illustrator 24.1.2, SVG Export Plug-In . SVG Version: 6.00 Build 0)  -->
<svg version="1.0" id="Layer_1" xmlns="http://www.w3.org/2000/svg" xmlns:xlink="http://www.w3.org/1999/xlink" x="0px" y="0px"
	 viewBox="0 0 50 50" style="enable-background:new 0 0 50 50;" xml:space="preserve">
<circle fill='#fff' cx="25" cy="25" r="7.5"/>
<g fill='#fff'>
<rect x="24.5" y="1" width="1" height="16"/>
<rect x="24.5" y="33" width="1" height="16"/>
<rect x="40.5" y="16.5" transform="matrix(6.123234e-17 -1 1 6.123234e-17 16.5 65.5)" width="2" height="16"/>
<rect x="8.5" y="17" transform="matrix(6.123234e-17 -1 1 6.123234e-17 -16 34)" width="2" height="16"/>
<rect x="12.9" y="5.6" transform="matrix(0.7071 -0.7071 0.7071 0.7071 -5.732 13.4545)" width="2" height="16"/>
<rect x="35.9" y="28.6" transform="matrix(0.7071 -0.7071 0.7071 0.7071 -15.2438 36.4482)" width="2" height="16"/>
<rect x="35.9" y="5.4" transform="matrix(0.7071 0.7071 -0.7071 0.7071 20.1115 -21.8036)" width="2" height="16"/>
<rect x="13.1" y="28.6" transform="matrix(0.7071 0.7071 -0.7071 0.7071 29.8885 1.0929)" width="2" height="16"/>
</g>
</svg>
