<?xml version="1.0" encoding="utf-8"?>
<!-- Generator: Adobe Illustrator 24.1.2, SVG Export Plug-In . SVG Version: 6.00 Build 0)  -->
<svg version="1.0" id="Layer_1" xmlns="http://www.w3.org/2000/svg" xmlns:xlink="http://www.w3.org/1999/xlink" x="0px" y="0px"
	 viewBox="0 0 50 50" style="enable-background:new 0 0 50 50;" xml:space="preserve">
<g fill='#fff' transform="translate(0.000000,387.000000) scale(0.100000,-0.100000)">
	<path d="M314.5,3855.3c-1.9-3.8-0.6-18.8,3.8-33.2c8.9-33.2,3.2-80.2-14.7-114c-10.2-20-10.8-23.8-3.2-16.9
		c29.3,23.8,54.8,110.2,44,147.8C338.7,3857.8,322.1,3867.2,314.5,3855.3z"/>
	<path d="M446.2,3725.3c-21.7-33.2-54.8-60.8-89.8-73.9c-39.5-15-33.8-17.5,11.5-6.3c58.6,15,116.6,61.4,110.9,88.9
		C474.9,3752.8,461.5,3749.1,446.2,3725.3z"/>
	<path d="M120.1,3610.5c-55.6-18.2-112.4-68.9-99.2-88.9c7.3-11.3,22.5-6.3,32.4,11.3c15.2,27.6,57.5,62,93.3,75.8
		C186.9,3623.6,165.8,3625.5,120.1,3610.5z"/>
	<path d="M180,3532.5c-19.1-30.3-29.3-65.7-29.3-102.9c0-33.5,14-57.5,26.1-45.5c5.7,5.7,5.7,15.8,0.6,41
		c-7,37.3-1.9,81.4,14.7,112.4C206.1,3564.7,198.5,3560.9,180,3532.5z"/>
	<path d="M326.5,3584.9c4.2-5,23.6-16.9,42.4-26.9c41.2-21.3,112.7-26.3,122.9-9.4c10.3,16.9-6.1,25.7-33.3,18.2
		c-30.9-8.8-82.4-2.5-113.9,14.4C328.4,3589.9,321.7,3591.1,326.5,3584.9z"/>
	<path d="M270.3,3523.9c8.9-54.2,63.7-128.8,89.8-123.7c17.2,3.2,18.5,22.3,2.5,27.4c-24.9,7.6-59.3,44-77.7,82.9
		C267.1,3546.9,266.5,3547.5,270.3,3523.9z"/>
</g>
<path fill='#fff' d="M15.3,16.7C10.6,13.2,3,11.4,1.8,13.6c-0.6,1.2,0.7,2.1,2.8,2c3.3-0.3,8.7,1.3,11.9,3.3C20.1,21.2,19.1,19.5,15.3,16.7z"/>
<path fill='#fff' d="M24.1,16.6c0.1-0.7-0.3-2.9-0.8-5.1c-1.1-4.6-5.5-10.6-7.6-10.3c-2,0.3-1.6,2.1,0.8,3.8c2.7,1.9,5.7,6.4,6.6,10
	C23.6,16.8,23.9,17.5,24.1,16.6z"/>
<ellipse fill='#fff' cx="25" cy="25" rx="8" ry="7.8"/>
</svg>
